<?xml version="1.0" encoding="UTF-8"?>
<!DOCTYPE svg PUBLIC "-//W3C//DTD SVG 1.1//EN" "http://www.w3.org/Graphics/SVG/1.1/DTD/svg11.dtd">
<!-- Creator: CorelDRAW X7 -->
<svg xmlns="http://www.w3.org/2000/svg" xml:space="preserve" width="140mm" height="42mm" version="1.1" style="shape-rendering:geometricPrecision; text-rendering:geometricPrecision; image-rendering:optimizeQuality; fill-rule:evenodd; clip-rule:evenodd"
viewBox="0 0 5182 1555"
 xmlns:xlink="http://www.w3.org/1999/xlink">
 <defs>
  <style type="text/css">
   <![CDATA[
    .fil0 {fill:none}
    .fil6 {fill:#674736}
    .fil5 {fill:#94795D}
    .fil4 {fill:#CDA786}
    .fil3 {fill:#D6001C}
    .fil1 {fill:#31261D;fill-rule:nonzero}
    .fil2 {fill:#D6001C;fill-rule:nonzero}
   ]]>
  </style>
 </defs>
 <g id="Warstwa_x0020_1">
  <metadata id="CorelCorpID_0Corel-Layer"/>
  <polygon class="fil0" points="0,0 5182,0 5182,1555 0,1555 "/>
  <path class="fil1" d="M5060 318l-88 0 0 573 88 0 0 -573zm-1809 279l73 -40c-20,-26 -44,-46 -73,-60 -16,-8 -34,-15 -52,-19 -18,-4 -38,-6 -58,-6 -23,0 -44,3 -64,7 -20,5 -38,12 -56,22 -18,9 -34,21 -48,34 -13,13 -25,28 -35,44 -10,17 -18,34 -22,53 -5,18 -8,37 -8,57 0,28 5,55 15,80 11,24 26,47 46,69 21,21 45,37 73,47 28,11 61,16 97,16 41,0 76,-7 107,-21 28,-13 53,-32 73,-56l-68 -47c-14,14 -29,25 -46,32 -20,9 -43,14 -68,14 -21,0 -39,-3 -56,-10 -17,-6 -32,-15 -45,-27 -13,-13 -22,-27 -29,-43 -6,-16 -9,-34 -9,-53 0,-20 3,-38 10,-55 6,-16 16,-31 30,-44 13,-13 28,-22 46,-29 17,-6 36,-9 58,-9 11,0 22,1 32,3 10,1 20,4 29,8 9,4 18,9 27,15 7,5 14,11 21,18zm497 -1c8,10 13,22 17,35l4 12 -261 0 7 -14c6,-13 13,-25 20,-34 7,-10 14,-18 22,-24 12,-9 25,-15 40,-20 14,-4 29,-6 45,-6 14,0 28,2 41,6 13,4 25,10 37,17 11,8 20,17 28,28zm-229 111l334 0 1 -10c0,-34 -6,-65 -16,-92 -10,-27 -25,-51 -45,-71 -20,-21 -43,-36 -69,-46 -26,-11 -56,-16 -88,-16 -31,0 -58,5 -84,16 -25,10 -47,25 -67,46 -20,21 -35,44 -46,69 -10,26 -15,55 -15,86 0,31 5,59 15,84 10,25 26,48 46,68 20,20 43,35 69,45 26,10 55,15 87,15 21,0 41,-1 58,-5 18,-4 35,-9 50,-16 14,-8 28,-17 41,-28 10,-9 20,-20 29,-31l-74 -35c-14,13 -29,23 -45,29 -18,8 -38,12 -59,12 -18,0 -34,-3 -49,-8 -15,-5 -28,-12 -40,-22l0 0c-12,-9 -21,-21 -28,-34 -7,-13 -12,-28 -15,-44l-2 -12 12 0zm441 194l89 0 0 -195c0,-20 1,-38 3,-52 1,-15 3,-26 6,-35 3,-9 7,-16 12,-23 5,-7 11,-13 18,-18l0 0c7,-5 15,-9 24,-11 8,-2 17,-4 27,-4 10,0 19,2 28,4 8,2 16,6 23,11 7,5 14,11 19,18 5,7 9,15 13,24l0 0c2,7 4,18 5,31 1,14 2,31 2,51l0 34c5,-2 9,-4 14,-5 11,-3 21,-4 33,-4 9,0 19,1 28,3 4,1 9,2 13,4l0 -4c0,-37 -2,-68 -5,-93 -3,-24 -7,-43 -12,-56 -7,-16 -15,-30 -25,-42 -10,-12 -22,-22 -35,-31 -13,-8 -28,-15 -45,-19 -17,-4 -36,-6 -57,-6 -45,0 -81,10 -108,29 -14,10 -25,22 -35,36 -10,13 -17,29 -23,47l0 0c-4,12 -7,30 -9,53 -2,23 -3,51 -3,85l0 168zm652 -340c15,-7 32,-10 50,-10 18,0 35,3 50,10 15,6 28,16 40,28 24,26 36,58 36,97 0,20 -3,38 -9,54 -6,16 -15,31 -27,44 -12,13 -26,22 -41,29 -15,6 -31,10 -49,10 -18,0 -35,-4 -50,-10 -15,-6 -29,-16 -41,-29 -12,-12 -21,-27 -27,-43 -6,-17 -9,-35 -9,-55 0,-20 3,-38 9,-54 6,-16 15,-31 27,-43 12,-13 26,-22 41,-28zm-72 -41l0 -37 -88 0 0 564 88 0 0 -215 16 16c10,10 20,18 31,25 10,7 20,12 29,16 10,4 21,7 32,9 11,2 22,3 33,3 27,0 51,-5 74,-15 23,-10 44,-25 63,-46 19,-20 34,-43 43,-68 10,-26 15,-54 15,-84 0,-32 -5,-61 -14,-87 -10,-26 -24,-49 -42,-69 -19,-20 -39,-35 -62,-45 -22,-10 -47,-15 -73,-15 -12,0 -24,1 -36,4 -11,2 -22,5 -33,10 -10,4 -21,10 -31,17 -10,7 -19,15 -29,24l-16 16 0 -23z"/>
  <path class="fil2" d="M4296 801c-6,-2 -13,-3 -20,-3 -8,0 -14,1 -20,3 -7,3 -12,7 -17,12 -5,5 -9,10 -12,16 -2,6 -3,13 -3,20 0,8 1,14 3,20 3,6 7,12 12,17 5,5 11,9 17,12 6,2 12,3 20,3 7,0 13,-1 20,-3 6,-3 11,-7 16,-12 5,-5 9,-10 12,-17 2,-6 3,-12 3,-20 0,-7 -1,-14 -3,-20 -3,-6 -7,-11 -12,-16 -5,-5 -10,-9 -16,-12z"/>
  <path class="fil2" d="M1908 483l-28 0 0 71 38 0 0 337 88 0 0 -337 67 0 0 -71 -68 0 1 -63c0,-7 0,-13 2,-18 1,-6 4,-10 7,-13l0 -1c4,-3 9,-6 15,-8 6,-1 12,-2 19,-2 5,0 12,1 19,2 3,0 6,1 9,2l0 -62c-11,-4 -22,-7 -32,-9 -11,-3 -23,-4 -33,-4 -15,0 -27,2 -38,5 -11,3 -20,8 -28,14 -7,6 -13,13 -17,21 -4,8 -7,18 -9,28l0 0c0,5 -1,16 -1,32 -1,17 -1,39 -1,66l0 10 -10 0zm812 0l-73 0 0 408 87 0 0 -163 0 -21c0,-30 1,-55 4,-76 3,-21 8,-37 14,-48 6,-12 14,-20 22,-26 8,-7 18,-10 28,-10 5,0 11,1 17,3 3,1 6,2 9,3l26 -74c-4,-2 -8,-3 -12,-4 -7,-2 -13,-3 -19,-3 -9,0 -17,2 -25,4 -8,2 -16,6 -24,11 -7,5 -14,11 -20,19 -6,7 -11,16 -16,26l-18 39 0 -88zm-461 108c24,-25 54,-37 90,-37 18,0 35,3 50,9 16,6 29,15 41,28l0 0c12,12 21,27 27,43 6,16 9,33 9,53 0,19 -3,37 -9,53 -6,16 -15,31 -27,43 -13,13 -26,22 -41,28 -16,7 -32,10 -50,10 -18,0 -35,-3 -50,-9 -15,-7 -29,-16 -41,-29 -11,-12 -20,-26 -26,-43 -6,-16 -9,-34 -9,-53 0,-19 3,-37 9,-53 6,-16 15,-30 27,-43l0 0zm145 -111c-18,-5 -37,-8 -56,-8 -27,0 -52,5 -76,14 -24,9 -46,23 -66,42 -47,42 -71,95 -71,159 0,30 5,58 16,83 10,25 26,48 47,69 20,21 43,37 68,47 25,10 52,15 82,15 20,0 39,-2 57,-7 19,-4 36,-11 53,-21 16,-9 31,-21 44,-34 13,-13 25,-28 34,-44 10,-17 17,-35 22,-53 5,-18 7,-36 7,-56 0,-19 -2,-37 -7,-55 -5,-18 -12,-35 -22,-51 -9,-17 -20,-32 -34,-45 -13,-13 -28,-24 -45,-34 -17,-9 -35,-17 -53,-21z"/>
  <path class="fil2" d="M1979 1123l0 26c-10,-4 -18,-6 -25,-6 -5,0 -10,1 -13,3 -4,2 -6,5 -7,7 -1,3 -1,10 -1,22l0 28 43 0 0 23 -43 0 0 183 -27 0 0 -183 -27 0 0 -23 27 0 0 -32c0,-15 2,-26 4,-32 3,-6 8,-11 14,-15 7,-4 15,-6 24,-6 9,0 19,2 31,5zm134 75c32,0 59,11 79,34 19,21 29,46 29,75 0,28 -10,53 -30,75 -20,21 -46,32 -78,32 -31,0 -57,-11 -77,-32 -21,-22 -31,-47 -31,-75 0,-29 10,-54 29,-75 21,-23 47,-34 79,-34zm0 26c-22,0 -41,8 -57,24 -16,16 -23,36 -23,59 0,15 3,29 10,42 8,13 17,22 30,29 12,7 25,11 40,11 15,0 28,-4 41,-11 12,-7 22,-16 29,-29 7,-13 11,-27 11,-42 0,-23 -8,-43 -24,-59 -16,-16 -35,-24 -57,-24zm147 -21l27 0 0 30c8,-12 17,-21 26,-27 9,-5 18,-8 28,-8 7,0 15,2 23,7l-14 22c-5,-2 -10,-4 -14,-4 -8,0 -17,4 -25,11 -8,8 -15,19 -19,34 -3,12 -5,36 -5,71l0 70 -27 0 0 -206zm301 138l22 12c-7,14 -15,25 -25,34 -10,9 -21,16 -33,20 -12,5 -25,7 -41,7 -33,0 -60,-11 -79,-33 -19,-22 -28,-47 -28,-74 0,-26 8,-50 24,-70 20,-26 48,-39 82,-39 35,0 63,13 85,40 14,19 22,42 22,70l-186 0c0,24 8,44 23,59 15,15 33,23 55,23 11,0 21,-2 31,-6 10,-3 18,-8 25,-14 7,-6 15,-16 23,-29zm0 -56c-3,-14 -8,-25 -15,-34 -7,-8 -16,-15 -27,-20 -12,-5 -23,-8 -36,-8 -20,0 -38,7 -52,20 -11,9 -19,23 -24,42l154 0zm88 -167c6,0 11,2 15,7 4,4 6,9 6,15 0,6 -2,11 -6,16 -4,4 -9,6 -15,6 -6,0 -11,-2 -16,-6 -4,-5 -6,-10 -6,-16 0,-6 2,-11 6,-15 5,-5 10,-7 16,-7zm-14 85l27 0 0 206 -27 0 0 -206zm260 0l27 0 0 164c0,29 -3,50 -8,64 -7,18 -19,33 -36,43 -17,10 -38,16 -62,16 -18,0 -33,-3 -48,-8 -14,-5 -25,-12 -34,-20 -9,-9 -17,-21 -24,-37l28 0c8,13 18,24 31,30 12,7 28,10 46,10 18,0 33,-3 46,-10 12,-7 21,-15 26,-25 6,-10 8,-27 8,-49l0 -11c-10,13 -22,22 -36,29 -15,7 -30,10 -46,10 -19,0 -37,-5 -54,-14 -16,-9 -29,-22 -38,-38 -10,-16 -14,-33 -14,-52 0,-19 5,-37 14,-54 10,-16 23,-29 40,-39 16,-9 34,-14 53,-14 15,0 29,3 43,9 13,7 26,17 38,32l0 -36zm-78 20c-15,0 -29,4 -42,11 -13,8 -23,18 -30,30 -8,13 -11,27 -11,42 0,23 7,41 22,56 16,15 35,22 59,22 25,0 44,-7 59,-22 15,-14 23,-34 23,-57 0,-16 -4,-30 -11,-42 -6,-12 -16,-22 -29,-29 -12,-7 -26,-11 -40,-11zm161 -20l27 0 0 37c11,-14 22,-25 35,-32 13,-7 27,-10 42,-10 16,0 30,4 42,12 12,7 21,18 26,31 6,13 9,34 9,62l0 106 -27 0 0 -98c0,-24 -1,-40 -3,-48 -3,-13 -9,-23 -18,-30 -8,-7 -20,-11 -34,-11 -16,0 -30,6 -43,16 -13,11 -21,24 -25,40 -3,10 -4,28 -4,56l0 75 -27 0 0 -206zm412 138l22 12c-7,14 -16,25 -25,34 -10,9 -21,16 -33,20 -12,5 -26,7 -41,7 -34,0 -60,-11 -79,-33 -19,-22 -29,-47 -29,-74 0,-26 8,-50 25,-70 20,-26 47,-39 82,-39 35,0 63,13 84,40 15,19 23,42 23,70l-186 0c0,24 8,44 23,59 14,15 33,23 55,23 10,0 21,-2 31,-6 9,-3 18,-8 25,-14 7,-6 15,-16 23,-29zm0 -56c-4,-14 -9,-25 -16,-34 -7,-8 -16,-15 -27,-20 -11,-5 -23,-8 -35,-8 -20,0 -38,7 -53,20 -10,9 -18,23 -24,42l155 0zm68 -82l27 0 0 30c8,-12 17,-21 26,-27 9,-5 18,-8 28,-8 7,0 15,2 23,7l-14 22c-5,-2 -10,-4 -14,-4 -8,0 -17,4 -25,11 -8,8 -15,19 -19,34 -3,12 -5,36 -5,71l0 70 -27 0 0 -206zm231 22l-17 18c-14,-14 -28,-21 -42,-21 -8,0 -16,3 -22,9 -6,5 -9,12 -9,20 0,6 2,13 7,19 5,6 16,13 32,22 20,10 33,20 41,29 6,10 10,21 10,33 0,17 -6,31 -18,43 -12,11 -27,17 -45,17 -12,0 -23,-2 -34,-8 -11,-5 -19,-12 -27,-21l17 -19c14,15 28,23 43,23 11,0 20,-3 27,-10 8,-7 12,-15 12,-24 0,-8 -3,-15 -8,-21 -5,-5 -16,-13 -33,-22 -19,-9 -32,-19 -38,-28 -7,-9 -10,-20 -10,-32 0,-15 5,-28 16,-39 11,-10 24,-15 40,-15 19,0 39,9 58,27z"/>
  <path class="fil1" d="M4044 1246l-21 13c-19,-24 -44,-36 -75,-36 -25,0 -46,8 -63,24 -17,16 -25,36 -25,59 0,15 4,29 11,42 8,13 19,23 32,31 13,7 28,11 45,11 30,0 55,-12 75,-36l21 13c-10,15 -24,27 -40,35 -17,8 -36,12 -57,12 -33,0 -60,-10 -82,-31 -21,-21 -32,-46 -32,-75 0,-20 5,-39 15,-56 10,-17 24,-30 42,-40 17,-9 37,-14 59,-14 14,0 27,2 40,6 12,4 23,10 32,16 9,7 16,15 23,26zm225 95l22 12c-7,14 -16,25 -25,34 -10,9 -21,16 -33,20 -12,5 -26,7 -41,7 -34,0 -60,-11 -79,-33 -19,-22 -29,-47 -29,-74 0,-27 9,-50 25,-70 20,-26 47,-39 82,-39 35,0 63,13 84,40 15,19 23,42 23,70l-186 0c0,24 8,44 23,59 15,15 33,23 55,23 10,0 21,-2 31,-6 10,-3 18,-8 25,-14 7,-6 15,-16 23,-29zm0 -56c-4,-14 -9,-25 -16,-34 -6,-8 -15,-15 -27,-20 -11,-5 -23,-8 -35,-8 -20,0 -38,7 -52,20 -11,9 -19,23 -25,42l155 0zm78 -82l26 0 0 37c11,-14 23,-25 36,-32 13,-7 27,-10 42,-10 16,0 29,4 41,12 12,7 21,18 27,31 6,13 8,34 8,62l0 106 -26 0 0 -98c0,-24 -1,-40 -3,-48 -3,-13 -9,-24 -18,-30 -9,-7 -20,-11 -34,-11 -16,0 -31,6 -43,16 -13,11 -22,24 -26,40 -2,10 -4,28 -4,56l0 75 -26 0 0 -206zm260 -77l26 0 0 77 42 0 0 23 -42 0 0 183 -26 0 0 -183 -36 0 0 -23 36 0 0 -77zm283 215l22 12c-7,14 -16,25 -25,34 -10,9 -21,16 -33,20 -12,5 -25,7 -41,7 -33,0 -60,-11 -79,-33 -19,-22 -28,-47 -28,-74 0,-27 8,-50 24,-70 20,-26 48,-39 82,-39 35,0 63,13 84,40 15,19 23,42 23,70l-186 0c0,24 8,44 23,59 15,15 33,23 55,23 10,0 21,-2 31,-6 10,-3 18,-8 25,-14 7,-6 15,-16 23,-29zm0 -56c-3,-14 -9,-25 -15,-34 -7,-8 -16,-15 -27,-20 -12,-5 -23,-8 -36,-8 -20,0 -38,7 -52,20 -11,9 -19,23 -25,42l155 0zm68 -82l27 0 0 30c8,-12 17,-21 26,-27 9,-5 18,-8 28,-8 7,0 15,2 24,7l-14 22c-6,-2 -11,-4 -14,-4 -9,0 -18,4 -26,11 -8,8 -14,19 -19,34 -3,12 -5,36 -5,71l0 70 -27 0 0 -206z"/>
  <path class="fil3" d="M698 153l-536 237c94,404 52,211 135,614l931 363 202 -332c-27,-131 -41,-213 -53,-278l-1 -5 -18 -100 -7 -107c-3,-61 -4,-137 -7,-250l-608 -49 315 4c379,5 350,-59 357,210l15 200c16,80 73,348 77,375 6,34 -228,401 -246,408 -28,9 -965,-366 -999,-382 -52,-24 -136,-684 -136,-685 5,-30 549,-212 579,-223z"/>
  <path class="fil4" d="M191 407l259 382 427 -630 -428 852 -258 -604zm262 -6c-45,0 -81,36 -81,81 0,44 36,81 81,81 44,0 81,-37 81,-81 0,-45 -37,-81 -81,-81z"/>
  <path class="fil5" d="M507 387l288 424 474 -699 -475 946 -287 -671zm291 -7c-50,0 -90,40 -90,90 0,50 40,90 90,90 50,0 90,-40 90,-90 0,-50 -40,-90 -90,-90z"/>
  <path class="fil6" d="M865 367l317 467 521 -769 -522 1040 -316 -738zm320 -7c-54,0 -98,44 -98,99 0,54 44,99 98,99 55,0 99,-45 99,-99 0,-55 -44,-99 -99,-99z"/>
 </g>
</svg>
