<?xml version="1.0" encoding="UTF-8" standalone="no"?>
<svg xmlns:dc="http://purl.org/dc/elements/1.1/" xmlns:cc="http://creativecommons.org/ns#"
   xmlns:rdf="http://www.w3.org/1999/02/22-rdf-syntax-ns#" xmlns:svg="http://www.w3.org/2000/svg"
   xmlns="http://www.w3.org/2000/svg" xmlns:sodipodi="http://sodipodi.sourceforge.net/DTD/sodipodi-0.dtd"
   xmlns:inkscape="http://www.inkscape.org/namespaces/inkscape" inkscape:version="1.0 (4035a4fb49, 2020-05-01)"
   sodipodi:docname="logo.svg" version="1.1" id="svg21" viewBox="0 0 120 65">
   <sodipodi:namedview inkscape:current-layer="svg21" inkscape:window-maximized="1" inkscape:window-y="-8"
      inkscape:window-x="-8" inkscape:cy="47.239079" inkscape:cx="55.098786" inkscape:zoom="11.113613" showgrid="false"
      id="namedview38" inkscape:window-height="1017" inkscape:window-width="1920" inkscape:pageshadow="2"
      inkscape:pageopacity="0" guidetolerance="10" gridtolerance="10" objecttolerance="10" borderopacity="1"
      bordercolor="#666666" pagecolor="#ffffff" />
   <metadata id="metadata27">
      <rdf:RDF>
         <cc:Work rdf:about="">
            <dc:format>image/svg+xml</dc:format>
            <dc:type rdf:resource="http://purl.org/dc/dcmitype/StillImage" />
            <dc:title></dc:title>
         </cc:Work>
      </rdf:RDF>
   </metadata>
   <defs id="defs25" />
   <g transform="translate(-248.4515,-139.62384)" id="Layer1000">
      <path
         d="m 337.4528,165.4618 v 4.9753 h 4.1693 l -2.198,4.8811 -0.3208,-0.0469 v -0.3208 c 0,-0.1955 -0.0626,-0.3677 -0.1879,-0.5084 -0.1172,-0.1329 -0.2657,-0.2034 -0.4301,-0.2034 h -1.0325 v 15.6296 c 0,0.1877 0.0233,0.3441 0.078,0.4848 0.0548,0.1332 0.1332,0.2582 0.2425,0.3677 l 0.571,0.5711 v 0.3208 h -5.8589 v -0.3208 l 0.5711,-0.5711 c 0.1095,-0.1095 0.1876,-0.2345 0.2424,-0.3677 0.0547,-0.1407 0.0783,-0.2971 0.0783,-0.4848 v -15.6296 h -3.2777 v -0.3208 c 1.2202,-1.1733 2.4171,-2.4561 3.5828,-3.8485 1.1733,-1.3924 2.3233,-2.9258 3.4497,-4.6076 z"
         style="fill:#1b1918;fill-rule:evenodd" id="path2" />
      <path
         d="m 308.0789,189.8683 v -17.7338 c 0,-0.1564 -0.0236,-0.2972 -0.0781,-0.4303 -0.0547,-0.125 -0.141,-0.2503 -0.266,-0.3756 l -0.5946,-0.5474 v -0.3441 h 4.8814 v 1.5095 l 0.0938,0.0472 1.5331,-1.5567 h 3.184 c 3.0115,0.0311 5.2803,0.8525 6.8212,2.4719 1.5332,1.6193 2.2997,4.005 2.2997,7.1499 v 9.8094 c 0,0.1877 0.0236,0.3441 0.0784,0.4848 0.0548,0.1332 0.1329,0.2582 0.2424,0.3677 l 0.618,0.5711 v 0.3208 h -5.914 v -0.3208 l 0.6183,-0.5711 c 0.1092,-0.1095 0.1876,-0.2345 0.2424,-0.3677 0.0548,-0.1407 0.0781,-0.2971 0.0781,-0.4848 v -9.8094 c 0,-1.8933 -0.4225,-3.3404 -1.2593,-4.334 -0.8371,-0.9932 -2.0575,-1.4862 -3.6609,-1.4862 h -0.0941 -4.7873 v 15.6296 c 0,0.1877 0.0233,0.3441 0.0781,0.4848 0.0548,0.1332 0.1331,0.2582 0.2427,0.3677 l 0.6179,0.5711 v 0.3208 h -5.9139 v -0.3208 l 0.5946,-0.5711 c 0.125,-0.1095 0.2113,-0.2345 0.266,-0.3677 0.0545,-0.1407 0.0781,-0.2971 0.0781,-0.4848 z"
         style="fill:#1b1918;fill-rule:evenodd" id="path4" />
      <path
         d="m 294.2956,187.811 h 6.0312 c 0.2738,0 0.5008,-0.0314 0.6727,-0.0941 0.1801,-0.0547 0.3598,-0.164 0.5399,-0.3205 l 0.8918,-0.7511 0.2736,0.1408 -2.7691,4.8266 h -5.7729 c -3.5595,0 -6.3598,-0.923 -8.3859,-2.7691 -2.034,-1.8542 -3.0508,-4.3887 -3.0508,-7.6114 0,-3.4969 1.0795,-6.1721 3.2306,-8.0261 2.1514,-1.846 5.2803,-2.769 9.3715,-2.769 h 7.5176 l -7.2204,13.799 h -4.1929 l 5.2724,-9.9974 h -2.9567 c -2.1826,0 -3.8725,0.5789 -5.0615,1.7444 -1.1966,1.1578 -1.7913,2.8005 -1.7913,4.9283 0,2.2606 0.6259,3.9738 1.8775,5.1471 1.2517,1.1657 3.0978,1.7525 5.5227,1.7525 z"
         style="fill:#1b1918;fill-rule:evenodd" id="path6" />
      <path
         d="m 265.8645,194.1686 10.7951,-20.8552 c 0.1722,-0.3365 0.2972,-0.6258 0.3834,-0.8682 0.0781,-0.2427 0.125,-0.4382 0.125,-0.5711 0,-0.1095 -0.0233,-0.2112 -0.0548,-0.2972 -0.039,-0.0941 -0.1016,-0.18 -0.1719,-0.2505 l -0.4615,-0.4848 v -0.3208 h 6.7351 l -17.3973,33.6448 -17.3661,-33.6448 h 7.0325 v 0.3208 l -0.4146,0.4146 c -0.086,0.0859 -0.1644,0.1876 -0.2113,0.2971 -0.0547,0.1096 -0.0859,0.1956 -0.0859,0.2739 0,0.1408 0.0469,0.3441 0.1407,0.618 0.0938,0.2736 0.2191,0.5711 0.391,0.8918 z"
         style="fill:#1b1918;fill-rule:evenodd" id="path8" />
      <path
         d="m 265.9367,188.6872 5.8786,-11.8912 6.2266,-11.8915 c 4.9932,-10.4703 -13.3973,-13.7813 -11.3145,-25.0255 -13.5232,10.2844 -2.3129,24.0323 -13.0701,24.6772 z"
         style="fill:#e30016;fill-rule:evenodd;stroke:#1b1918;stroke-width:0.216;stroke-linecap:butt;stroke-linejoin:miter;stroke-dasharray:none"
         id="path10" />
      <path
         d="m 266.0194,186.2703 3.4844,-8.6853 3.4842,-8.6856 c 3.3646,-8.3713 -7.0835,-11.3671 -7.6296,-19.82 -4.5296,5.7979 -0.5098,21.7774 -6.8301,19.4717 l 3.6584,8.8597 z"
         style="fill:#ffec00;fill-rule:evenodd;stroke:#1b1918;stroke-width:0.216;stroke-linecap:butt;stroke-linejoin:miter;stroke-dasharray:none"
         id="path12" />
      <path
         d="m 343.7577,181.0521 c 0,-3.2542 1.0953,-5.9215 3.2775,-8.0024 2.1826,-2.073 5.0067,-3.1135 8.4564,-3.1135 3.434,0 6.2502,1.0405 8.4482,3.1135 2.1905,2.0809 3.2857,4.7482 3.2857,8.0024 0,3.2621 -1.0952,5.9373 -3.2857,8.0182 -2.198,2.073 -5.0142,3.1134 -8.4482,3.1134 -3.4654,0 -6.2895,-1.0325 -8.4718,-3.1055 -2.1747,-2.0652 -3.2621,-4.7483 -3.2621,-8.0261 z m 11.7339,-7.3139 c -2.2921,0 -4.1148,0.6648 -5.4758,1.9946 -1.3612,1.3298 -2.0418,3.0977 -2.0418,5.3193 0,2.2295 0.6806,4.0053 2.0418,5.3351 1.361,1.3297 3.1837,1.9949 5.4758,1.9949 2.2764,0 4.1067,-0.6652 5.4758,-2.0028 1.3767,-1.3376 2.0651,-3.1134 2.0651,-5.3272 0,-2.2216 -0.6884,-3.9895 -2.0651,-5.3193 -1.3691,-1.3298 -3.1994,-1.9946 -5.4758,-1.9946 z"
         style="fill:#1b1918;fill-rule:evenodd" id="path14" />
      <path
         d="m 273.5956,193.482 c 28.9959,0 59.712,0 88.7084,0 5e-4,0 8e-4,0 0.001,0 2.6089,0 4.737,1.5487 4.737,3.4479 0,1.8988 -2.1281,3.4479 -4.737,3.4479 -5e-4,0 -8e-4,0 -0.001,0 l -92.5042,2e-4 z"
         style="fill:#ffec00;fill-rule:evenodd;stroke:#1b1918;stroke-width:0.216;stroke-linecap:butt;stroke-linejoin:miter;stroke-dasharray:none"
         id="path16" />
      <path
         d="m 258.2719,193.5607 c -1.8252,0 -3.1217,0 -4.9338,0 -5e-4,0 -8e-4,0 -0.001,0 -2.6088,0 -4.737,1.5486 -4.737,3.4479 0,1.8988 2.1282,3.4478 4.737,3.4478 5e-4,0 8e-4,0 0.001,0 h 8.4974 z"
         style="fill:#e30016;fill-rule:evenodd;stroke:#1b1918;stroke-width:0.216;stroke-linecap:butt;stroke-linejoin:miter;stroke-dasharray:none"
         id="path18" />
   </g>
</svg>